<svg width="17" height="17" viewBox="0 0 17 17" fill="none" xmlns="http://www.w3.org/2000/svg">
<path d="M0.765584 0.765584C1.0586 0.472661 1.45595 0.308105 1.87027 0.308105C2.28459 0.308105 2.68195 0.472661 2.97496 0.765584L8.49996 6.29058L14.025 0.765584C14.3196 0.480962 14.7143 0.323471 15.124 0.327031C15.5337 0.330591 15.9256 0.494918 16.2153 0.784618C16.505 1.07432 16.6693 1.46621 16.6729 1.87589C16.6764 2.28558 16.519 2.68027 16.2343 2.97496L10.7093 8.49996L16.2343 14.025C16.519 14.3196 16.6764 14.7143 16.6729 15.124C16.6693 15.5337 16.505 15.9256 16.2153 16.2153C15.9256 16.505 15.5337 16.6693 15.124 16.6729C14.7143 16.6764 14.3196 16.519 14.025 16.2343L8.49996 10.7093L2.97496 16.2343C2.68027 16.519 2.28558 16.6764 1.87589 16.6729C1.46621 16.6693 1.07432 16.505 0.784618 16.2153C0.494918 15.9256 0.330591 15.5337 0.327031 15.124C0.323471 14.7143 0.480962 14.3196 0.765584 14.025L6.29058 8.49996L0.765584 2.97496C0.472661 2.68195 0.308105 2.28459 0.308105 1.87027C0.308105 1.45595 0.472661 1.0586 0.765584 0.765584Z" fill="black"/>
</svg>
