<svg width="28" height="28" viewBox="0 0 28 28" fill="none" xmlns="http://www.w3.org/2000/svg">
<path d="M18.6667 14C18.6671 14.1983 18.6169 14.3934 18.521 14.5669C18.425 14.7404 18.2865 14.8866 18.1183 14.9917L8.785 20.825C8.59934 20.9401 8.3851 21.0007 8.16667 21C7.96954 21.0024 7.77563 20.9499 7.60667 20.8483C7.42428 20.7486 7.27188 20.6019 7.16522 20.4234C7.05855 20.245 7.00152 20.0412 7 19.8333V8.16668C6.99958 7.95823 7.05503 7.75347 7.16056 7.57371C7.26609 7.39394 7.41786 7.24573 7.60008 7.1445C7.78231 7.04326 7.98832 6.9927 8.19671 6.99807C8.40509 7.00344 8.60823 7.06454 8.785 7.17502L18.1183 13.0084C18.2865 13.1134 18.425 13.2596 18.521 13.4331C18.6169 13.6066 18.6671 13.8017 18.6667 14Z" fill="black"/>
<path d="M22.1668 7H19.8335V21H22.1668V7Z" fill="black"/>
</svg>
