<svg width="28" height="28" viewBox="0 0 28 28" fill="none" xmlns="http://www.w3.org/2000/svg">
<path d="M9.33333 14C9.33294 13.8017 9.38308 13.6066 9.47902 13.4331C9.57496 13.2596 9.71354 13.1134 9.88167 13.0083L19.215 7.17499C19.4007 7.05992 19.6149 6.99929 19.8333 6.99999C20.0305 6.99757 20.2244 7.05008 20.3933 7.15165C20.5757 7.25144 20.7281 7.39815 20.8348 7.5766C20.9414 7.75505 20.9985 7.95876 21 8.16665L21 19.8333C21.0004 20.0418 20.945 20.2465 20.8394 20.4263C20.7339 20.6061 20.5821 20.7543 20.3999 20.8555C20.2177 20.9567 20.0117 21.0073 19.8033 21.0019C19.5949 20.9966 19.3918 20.9355 19.215 20.825L9.88167 14.9916C9.71354 14.8866 9.57496 14.7404 9.47902 14.5669C9.38308 14.3933 9.33294 14.1983 9.33333 14Z" fill="black"/>
<path d="M5.83317 21L8.1665 21L8.16651 7L5.83317 7L5.83317 21Z" fill="black"/>
</svg>
