<svg width="32" height="32" viewBox="0 0 32 32" fill="none" xmlns="http://www.w3.org/2000/svg">
<path d="M25.3332 4L25.3332 20M6.6665 28L6.6665 22.6667L6.6665 28ZM6.6665 4L6.6665 17.3333L6.6665 4ZM15.9998 28L15.9998 12L15.9998 28ZM15.9998 4L15.9998 6.66667L15.9998 4ZM25.3332 28L25.3332 25.3333L25.3332 28Z" stroke="black" stroke-width="2" stroke-linecap="round"/>
<path d="M9.33333 20C9.33333 18.5273 8.13943 17.3334 6.66667 17.3334C5.19391 17.3334 4 18.5273 4 20C4 21.4728 5.19391 22.6667 6.66667 22.6667C8.13943 22.6667 9.33333 21.4728 9.33333 20Z" stroke="black" stroke-width="2" stroke-linecap="round"/>
<path d="M18.6668 9.33333C18.6668 7.86057 17.4729 6.66667 16.0002 6.66667C14.5274 6.66667 13.3335 7.86057 13.3335 9.33333C13.3335 10.8061 14.5274 12 16.0002 12C17.4729 12 18.6668 10.8061 18.6668 9.33333Z" stroke="black" stroke-width="2" stroke-linecap="round"/>
<path d="M27.9998 22.6666C27.9998 21.1939 26.8059 20 25.3332 20C23.8604 20 22.6665 21.1939 22.6665 22.6666C22.6665 24.1394 23.8604 25.3333 25.3332 25.3333C26.8059 25.3333 27.9998 24.1394 27.9998 22.6666Z" stroke="black" stroke-width="2" stroke-linecap="round"/>
</svg>
