<svg width="43" height="40" viewBox="0 0 43 40" fill="none" xmlns="http://www.w3.org/2000/svg">
<path d="M32.5855 17.2104C31.3568 18.3456 30.7428 19.9246 30.9105 21.5178L30.8817 21.4913C31.054 23.3661 30.3176 25.2154 28.8689 26.5458C27.4202 27.8762 25.4066 28.5525 23.3651 28.3942L23.3939 28.4207C20.9222 28.2094 18.5715 29.4442 17.5167 31.5079C16.4618 33.5717 16.9293 36.0213 18.6854 37.6326C20.4416 39.2439 23.1093 39.671 25.3556 38.7004C27.6018 37.7298 28.9442 35.5699 28.7119 33.3001L28.7423 33.3266C28.57 31.4518 29.3064 29.6025 30.7551 28.2721C32.2037 26.9417 34.2174 26.2654 36.2589 26.4236L36.2284 26.3972C38.945 26.6215 41.4728 25.1003 42.3332 22.7234C43.1936 20.3464 42.1607 17.7382 39.8386 16.4242C37.5164 15.1102 34.5152 15.4358 32.5903 17.2104H32.5855Z" fill="#5454D4"/>
<path d="M20.7726 24.9531L20.7422 24.9266C22.4781 25.0872 24.2008 24.5235 25.4349 23.3909C26.669 22.2584 27.2842 20.6768 27.1106 19.0825L27.141 19.1089C26.9687 17.2341 27.7051 15.3848 29.1537 14.0544C30.6024 12.724 32.6161 12.0477 34.6575 12.206L34.6271 12.1795C37.0991 12.3927 39.4512 11.1593 40.5076 9.09586C41.5641 7.0324 41.098 4.5821 39.3424 2.96978C37.5867 1.35745 34.9186 0.929418 32.6717 1.89964C30.4249 2.86986 29.0818 5.02992 29.314 7.30011L29.2851 7.27217C29.4581 9.14713 28.7219 10.9967 27.273 12.3273C25.8242 13.6578 23.8102 14.3339 21.7686 14.1751L21.7974 14.2031C20.0615 14.0424 18.3389 14.6061 17.1047 15.7387C15.8706 16.8712 15.2554 18.4529 15.429 20.0472L15.4002 20.0207C15.572 21.8954 14.8354 23.7443 13.3869 25.0746C11.9383 26.4049 9.92501 27.0814 7.88367 26.9236L7.91249 26.9501C5.44051 26.7369 3.08844 27.9703 2.03198 30.0338C0.975517 32.0972 1.4416 34.5475 3.19724 36.1599C4.95289 37.7722 7.62099 38.2002 9.86787 37.23C12.1147 36.2598 13.4578 34.0997 13.2256 31.8295L13.2561 31.856C13.0837 29.9812 13.8201 28.1319 15.2688 26.8015C16.7175 25.4711 18.7311 24.7948 20.7726 24.9531Z" fill="#FF7143"/>
<path d="M10.0406 22.0016C11.2695 20.8665 11.883 19.2873 11.714 17.6942L11.7444 17.7207C11.572 15.8453 12.3088 13.9955 13.7582 12.665C15.2076 11.3344 17.2222 10.6586 19.2642 10.8178L19.2337 10.7913C21.7049 11.0039 24.0558 9.7706 25.1116 7.7078C26.1674 5.64499 25.7014 3.19566 23.9464 1.58393C22.1914 -0.0277992 19.5244 -0.455804 17.2782 0.513824C15.032 1.48345 13.6891 3.64248 13.9206 5.91187L13.8918 5.8854C14.0641 7.76024 13.3277 9.60949 11.879 10.9399C10.4304 12.2703 8.41672 12.9466 6.37524 12.7883L6.40406 12.8148C3.68761 12.5911 1.16037 14.1127 0.300441 16.4896C-0.559486 18.8666 0.473785 21.4746 2.79592 22.7882C5.11806 24.1019 8.11911 23.7762 10.0438 22.0016H10.0406Z" fill="#5454D4"/>
</svg>
